<?xml version="1.0" standalone="no"?>
<!DOCTYPE svg PUBLIC "-//W3C//DTD SVG 20010904//EN"
 "http://www.w3.org/TR/2001/REC-SVG-20010904/DTD/svg10.dtd">
<svg version="1.0" xmlns="http://www.w3.org/2000/svg"
 width="564.000000pt" height="564.000000pt" viewBox="0 0 564.000000 564.000000"
 preserveAspectRatio="xMidYMid meet">

<g transform="translate(0.000000,564.000000) scale(0.100000,-0.100000)"
fill="#000000" stroke="none">
<path d="M2849 5387 c-18 -18 -41 -46 -50 -63 -15 -29 -22 -32 -85 -39 -44 -4
-76 -13 -89 -25 -11 -10 -33 -18 -49 -18 -33 1 -47 -18 -39 -50 4 -18 -1 -29
-22 -46 -27 -22 -36 -48 -52 -157 -4 -32 0 -42 32 -78 20 -22 51 -46 69 -52
l33 -12 47 -216 c47 -216 59 -247 107 -283 68 -51 382 -52 480 -2 51 25 62 58
70 199 6 114 17 217 34 321 4 23 13 33 40 43 69 25 140 124 105 146 -5 3 -10
17 -10 30 0 14 -11 32 -27 44 -50 37 -53 41 -53 72 0 22 -6 32 -25 39 -15 6
-32 24 -40 43 -7 18 -22 40 -33 50 -30 27 -130 59 -163 52 -18 -4 -51 1 -89
14 -33 12 -82 21 -108 21 -41 0 -53 -5 -83 -33z m191 -28 c34 -13 66 -18 85
-15 18 4 53 -1 85 -12 48 -16 58 -24 80 -65 14 -26 33 -50 43 -53 10 -3 17
-15 17 -31 0 -24 51 -83 71 -83 5 0 9 -9 9 -20 0 -11 6 -29 12 -40 11 -17 8
-24 -22 -55 -42 -42 -130 -69 -212 -66 -41 2 -68 -4 -97 -19 -33 -16 -45 -18
-62 -9 -12 6 -37 8 -58 5 -20 -4 -67 -8 -106 -11 -217 -15 -289 -8 -340 31
-40 30 -53 64 -36 100 6 14 11 40 11 58 0 24 7 38 30 54 22 17 30 31 30 53 0
26 3 29 19 24 13 -4 27 1 40 14 27 27 33 26 60 -3 13 -14 35 -29 50 -36 17 -7
32 -24 40 -45 7 -19 26 -43 45 -54 65 -40 94 -14 31 27 -19 12 -41 38 -50 57
-10 25 -25 40 -50 50 -43 18 -45 35 -5 35 31 0 61 25 86 73 20 37 24 34 22
-13 -1 -23 4 -46 10 -52 7 -7 12 -23 12 -36 0 -51 46 -101 93 -102 34 0 37 25
3 34 -37 9 -56 34 -56 70 0 19 -7 39 -15 46 -14 11 -13 63 1 108 5 16 42 10
124 -19z m245 -586 c-10 -59 -20 -163 -24 -230 -8 -141 -15 -154 -94 -178 -62
-18 -303 -19 -362 -1 -62 18 -76 49 -123 272 -23 110 -42 203 -42 207 0 5 10
7 22 5 19 -3 25 -16 45 -98 33 -136 65 -240 73 -240 4 0 -3 55 -16 123 -41
210 -40 197 -11 197 14 0 38 5 53 10 15 6 28 9 30 8 1 -2 12 -76 23 -165 12
-89 26 -172 31 -185 11 -24 10 -14 -10 237 -4 60 -6 113 -4 117 2 3 18 3 35
-2 20 -6 39 -6 50 0 38 21 39 15 40 -182 1 -210 8 -200 30 45 12 135 12 137
36 137 13 0 38 7 54 16 17 8 33 13 35 11 3 -2 -2 -70 -11 -150 -8 -81 -15
-166 -14 -189 0 -38 2 -40 10 -18 5 14 22 99 37 190 l28 165 36 -3 c20 -2 39
2 43 8 16 26 16 -4 0 -107z"/>
<path d="M3091 5241 c-15 -27 8 -54 43 -49 37 4 55 30 37 52 -19 22 -68 21
-80 -3z m69 -16 c0 -16 -45 -21 -54 -6 -8 12 4 21 31 21 14 0 23 -6 23 -15z"/>
<path d="M2684 5125 c-10 -25 4 -45 31 -45 30 0 43 24 25 45 -16 19 -49 19
-56 0z m46 -15 c0 -5 -7 -10 -15 -10 -8 0 -15 5 -15 10 0 6 7 10 15 10 8 0 15
-4 15 -10z"/>
<path d="M3240 5092 c-16 -5 -40 -31 -40 -43 0 -16 33 -39 55 -39 30 0 58 37
45 60 -10 19 -37 29 -60 22z m45 -42 c0 -18 -43 -26 -57 -12 -16 16 2 33 30
30 16 -2 27 -9 27 -18z"/>
<path d="M3034 5055 c-9 -23 3 -45 25 -45 25 0 34 14 26 40 -7 23 -43 27 -51
5z m36 -15 c0 -5 -4 -10 -10 -10 -5 0 -10 5 -10 10 0 6 5 10 10 10 6 0 10 -4
10 -10z"/>
<path d="M2599 5014 c-11 -14 -10 -19 10 -36 14 -10 31 -16 38 -13 8 3 18 5
23 5 14 0 21 32 9 46 -16 19 -64 18 -80 -2z m65 -13 c8 -12 -20 -22 -39 -15
-19 8 -9 24 15 24 10 0 21 -4 24 -9z"/>
<path d="M2844 4995 c-9 -23 3 -45 25 -45 23 0 35 28 20 46 -15 18 -38 18 -45
-1z m36 -15 c0 -5 -4 -10 -10 -10 -5 0 -10 5 -10 10 0 6 5 10 10 10 6 0 10 -4
10 -10z"/>
<path d="M2808 4395 c29 -17 282 -19 322 -3 31 13 17 14 -152 14 -128 -1 -181
-4 -170 -11z"/>
<path d="M4815 5413 c-205 -27 -1051 -238 -1134 -282 -58 -32 -69 -134 -20
-202 24 -34 24 -34 25 -305 0 -251 1 -273 20 -310 29 -56 96 -102 282 -196
150 -77 166 -83 217 -81 98 5 338 92 849 309 l279 119 20 44 c17 39 20 69 21
260 1 202 3 219 24 263 26 56 29 126 6 174 -36 75 -175 167 -299 199 -55 14
-212 18 -290 8z m295 -49 c101 -29 214 -101 250 -159 33 -55 34 -89 4 -152
-27 -57 -27 -60 -29 -278 -1 -170 -4 -227 -16 -250 -12 -26 -42 -42 -239 -127
-292 -126 -600 -248 -723 -287 -53 -17 -98 -31 -100 -31 -1 0 -2 53 -2 117 0
65 -4 186 -9 268 -6 107 -5 166 3 206 l12 57 57 22 c180 70 473 155 762 221
139 31 206 54 124 43 -249 -36 -624 -140 -898 -250 -16 -6 -17 -4 -7 14 53 99
-112 260 -352 343 l-80 28 59 16 c33 9 88 25 124 35 223 64 638 157 805 180
76 11 184 4 255 -16z m-1226 -264 c108 -27 249 -102 318 -170 73 -71 80 -98
43 -163 -38 -68 -46 -155 -33 -352 19 -296 14 -345 -29 -345 -25 0 -316 148
-367 188 -95 72 -91 57 -91 361 l0 267 -27 53 c-27 51 -36 113 -20 138 13 20
65 43 98 43 17 0 65 -9 108 -20z"/>
<path d="M4814 5349 c-79 -12 -189 -47 -154 -48 14 -1 80 6 145 15 140 19 256
14 360 -15 53 -15 65 -16 50 -5 -63 46 -269 74 -401 53z"/>
<path d="M4140 5070 c57 -29 121 -90 155 -148 24 -39 37 -42 24 -4 -24 68
-155 183 -208 182 -21 -1 -16 -6 29 -30z"/>
<path d="M5170 4477 c-102 -37 -634 -249 -703 -280 -37 -16 -66 -32 -64 -34
12 -11 793 299 820 326 13 13 15 14 -53 -12z"/>
<path d="M4890 4411 c-127 -52 -164 -70 -157 -77 4 -4 181 67 262 106 78 37 8
18 -105 -29z"/>
<path d="M3711 5074 c-19 -14 -22 -23 -18 -54 3 -21 14 -51 26 -66 33 -46 45
-156 36 -344 -13 -273 -12 -277 93 -344 106 -68 317 -170 338 -162 16 6 16 18
8 149 -5 78 -9 212 -9 298 l0 156 32 63 33 63 -21 33 c-80 130 -429 270 -518
208z m180 -20 c113 -33 265 -124 314 -189 l25 -32 -32 -63 c-33 -63 -33 -63
-33 -214 0 -83 4 -215 9 -293 6 -99 6 -143 -2 -143 -13 0 -263 128 -317 162
-88 56 -96 80 -82 267 14 194 0 353 -37 415 -45 77 -32 106 49 106 28 0 76 -7
106 -16z"/>
<path d="M3972 4898 c-18 -18 -15 -46 7 -57 24 -13 44 8 39 41 -3 26 -27 35
-46 16z m28 -28 c0 -11 -4 -20 -10 -20 -5 0 -10 9 -10 20 0 11 5 20 10 20 6 0
10 -9 10 -20z"/>
<path d="M3870 4755 c-10 -12 -10 -21 -2 -40 14 -30 37 -32 52 -6 13 25 13 27
-6 45 -19 20 -28 20 -44 1z m35 -35 c-5 -8 -11 -8 -17 -2 -6 6 -7 16 -3 22 5
8 11 8 17 2 6 -6 7 -16 3 -22z"/>
<path d="M4004 4645 c-8 -31 6 -48 32 -43 29 5 26 62 -3 66 -17 3 -24 -3 -29
-23z m36 -10 c0 -8 -4 -15 -10 -15 -5 0 -10 7 -10 15 0 8 5 15 10 15 6 0 10
-7 10 -15z"/>
<path d="M3887 4523 c-11 -10 -8 -48 5 -61 15 -15 48 3 48 26 0 31 -35 54 -53
35z m33 -27 c0 -8 -4 -18 -10 -21 -5 -3 -10 3 -10 14 0 12 5 21 10 21 6 0 10
-6 10 -14z"/>
<path d="M4004 4375 c-8 -31 6 -48 32 -43 29 5 26 62 -3 66 -17 3 -24 -3 -29
-23z m38 -10 c0 -5 -5 -11 -11 -13 -6 -2 -11 4 -11 13 0 9 5 15 11 13 6 -2 11
-8 11 -13z"/>
<path d="M512 5370 c-53 -33 -72 -74 -72 -160 0 -63 -3 -77 -19 -87 -11 -7
-22 -26 -26 -43 -6 -26 -11 -30 -41 -30 -46 0 -98 -22 -118 -51 -14 -21 -16
-70 -16 -432 l0 -409 34 -34 c19 -19 43 -34 55 -34 13 0 26 -12 37 -35 10 -21
33 -45 55 -58 l39 -22 0 -161 0 -161 -41 -6 c-23 -3 -48 -12 -57 -20 -11 -11
-20 -71 -33 -224 -10 -114 -19 -232 -19 -261 0 -57 19 -106 45 -116 9 -3 69
-6 134 -6 104 0 120 2 139 20 12 11 25 33 29 48 6 24 -18 361 -34 479 -7 59
-22 74 -76 80 l-47 6 0 162 0 163 24 6 c27 7 86 69 86 91 0 12 16 15 75 15 59
0 75 -3 75 -15 0 -22 57 -82 85 -89 l25 -6 0 -165 0 -165 -30 0 c-35 0 -77
-18 -84 -36 -11 -29 -48 -485 -42 -518 12 -64 41 -76 178 -76 113 0 120 1 143
25 34 33 34 36 8 344 -19 240 -22 249 -91 258 l-42 6 0 161 0 161 37 20 c21
11 45 36 56 58 l19 37 469 0 468 0 36 31 c19 17 35 37 35 45 0 8 10 14 26 14
14 0 39 10 55 23 69 53 86 64 129 76 57 17 124 82 139 136 23 83 15 133 -57
377 -71 237 -73 333 -11 411 25 31 28 38 14 43 -21 9 -50 -19 -76 -73 -39 -81
-19 -231 64 -482 26 -79 31 -112 32 -187 0 -85 -2 -93 -29 -128 -27 -36 -77
-66 -111 -66 -12 0 -15 14 -15 75 0 67 -3 79 -25 100 -13 14 -29 25 -35 25 -6
0 -10 69 -10 205 0 192 -1 206 -20 225 -11 11 -31 20 -44 20 -15 0 -27 7 -30
18 -13 38 -52 63 -110 69 -46 5 -56 9 -56 25 0 10 -11 30 -24 43 -21 21 -24
35 -27 109 -4 74 -7 88 -29 111 -53 57 -32 55 -647 55 -549 0 -569 -1 -601
-20z m1201 -41 c33 -25 49 -79 45 -144 l-3 -50 -60 0 -60 0 -6 43 c-7 52 -24
71 -75 82 -54 13 -840 12 -885 0 -47 -13 -61 -31 -68 -83 l-6 -42 -57 -3 -58
-3 0 78 c0 84 13 117 54 133 11 5 276 9 587 9 557 1 567 1 592 -20z m-149
-110 c38 -18 44 -62 12 -100 -14 -17 -26 -39 -26 -50 0 -18 -12 -19 -435 -19
-423 0 -435 1 -435 19 0 11 -12 33 -26 50 -30 37 -26 82 9 99 32 15 867 16
901 1z m-940 -125 c9 -3 16 -15 16 -25 0 -17 -9 -19 -105 -19 -107 0 -124 7
-93 38 13 13 153 17 182 6z m1164 -7 c6 -5 12 -16 12 -23 0 -11 -22 -14 -105
-14 -107 0 -124 7 -92 39 14 15 165 14 185 -2z m162 -95 c16 -13 23 -30 24
-58 l1 -39 -647 -3 -647 -2 -3 32 -3 33 -134 3 c-101 2 -136 -1 -143 -10 -4
-7 -8 -35 -8 -63 0 -27 4 -56 8 -63 7 -9 42 -12 143 -10 l134 3 5 30 5 30 645
0 645 0 0 -351 c0 -332 -1 -353 -19 -373 l-19 -21 -823 0 -823 0 -21 27 c-20
26 -21 33 -18 421 l3 394 24 19 c22 18 51 19 836 19 769 0 814 -1 835 -18z
m-1310 -107 l0 -35 -105 0 -105 0 0 35 0 35 105 0 105 0 0 -35z m1418 -318 l2
-347 -25 0 -24 0 0 342 c0 188 3 346 6 350 2 5 12 8 21 6 15 -3 17 -36 20
-351z m67 -202 c0 -70 -4 -100 -12 -102 -10 -4 -13 21 -13 102 0 81 3 106 13
103 8 -3 12 -33 12 -103z m-1575 -289 c0 -23 -50 -56 -84 -56 -35 0 -70 21
-86 51 -10 18 -7 19 80 19 71 0 90 -3 90 -14z m400 -5 c-29 -54 -104 -68 -145
-26 -14 13 -25 29 -25 35 0 6 34 10 90 10 87 0 90 -1 80 -19z m-510 -481 c0
-11 0 -132 0 -270 0 -137 0 -254 0 -260 0 -5 -9 -10 -20 -10 -40 0 -44 33 -31
297 7 136 15 251 18 256 9 15 33 6 33 -13z m84 -2 c3 -13 10 -129 17 -259 13
-255 9 -283 -34 -277 -22 3 -22 4 -25 268 -1 146 0 270 3 277 8 21 34 15 39
-9z m324 -255 l-3 -278 -22 -3 c-41 -6 -45 30 -33 283 13 270 14 275 40 275
20 0 20 -6 18 -277z m84 212 c11 -99 21 -441 14 -469 -5 -19 -13 -26 -31 -26
l-25 0 0 281 c0 262 1 280 18 277 13 -2 19 -17 24 -63z m57 -196 c21 -229 18
-289 -12 -289 -8 0 -12 34 -12 113 0 61 -3 186 -7 277 -10 230 7 177 31 -101z
m-619 6 c-7 -129 -10 -249 -6 -265 6 -33 -4 -39 -25 -14 -8 9 -13 38 -12 70 2
69 33 424 39 443 14 43 15 -23 4 -234z m212 44 c20 -237 22 -311 6 -327 -21
-21 -25 -13 -21 41 2 28 -2 150 -9 270 -16 276 0 288 24 16z m201 144 c-16
-304 -21 -432 -16 -455 7 -36 -13 -37 -29 -2 -16 35 22 514 41 514 4 0 6 -26
4 -57z"/>
<path d="M397 4383 c-10 -9 -8 -145 1 -161 7 -10 158 -12 723 -10 l714 3 0 85
0 85 -716 3 c-393 1 -719 -1 -722 -5z m1403 -63 l0 -30 -685 0 -685 0 0 30 0
30 685 0 685 0 0 -30z m0 -60 c0 -7 -235 -10 -685 -10 -450 0 -685 3 -685 10
0 7 235 10 685 10 450 0 685 -3 685 -10z"/>
<path d="M3213 4246 c-64 -21 -107 -51 -172 -122 -62 -68 -123 -178 -140 -254
-31 -136 17 -236 151 -314 99 -57 236 -82 305 -55 15 6 42 13 58 15 17 3 46
11 65 19 19 7 84 27 144 44 114 32 159 60 192 123 8 15 39 46 68 67 85 63 95
129 39 234 -44 81 -83 103 -325 188 -146 51 -186 61 -258 65 -56 2 -99 -1
-127 -10z m308 -70 l124 -44 -45 -12 c-78 -21 -162 -73 -234 -145 -39 -38 -61
-56 -49 -39 27 38 93 99 155 143 27 19 46 36 43 39 -11 11 -97 -53 -157 -116
-102 -109 -158 -225 -161 -337 -1 -30 -6 -55 -11 -55 -17 0 -112 59 -138 87
-15 15 -32 41 -37 56 -36 94 25 328 102 393 60 51 124 74 208 74 65 0 95 -7
200 -44z m301 -119 c75 -57 110 -131 93 -194 -8 -28 -8 -28 -16 10 -13 54 -33
90 -73 125 -64 56 -145 55 -260 -2 -83 -41 -189 -141 -232 -219 -36 -65 -40
-154 -9 -204 21 -36 21 -39 -17 -48 -23 -6 -29 -2 -53 40 -24 40 -27 54 -22
99 11 111 128 279 255 365 57 39 131 60 214 61 71 0 79 -2 120 -33z m-822 -96
c-11 -35 -20 -91 -20 -127 0 -107 41 -164 160 -224 31 -16 65 -41 75 -56 l17
-27 -28 7 c-62 15 -174 76 -213 116 -50 52 -65 96 -58 172 5 54 70 218 82 207
2 -3 -5 -33 -15 -68z m790 17 c62 -43 90 -139 54 -184 -15 -18 -15 -17 -10 14
12 73 -44 142 -123 150 -170 16 -352 -222 -270 -354 l21 -34 -28 -10 c-36 -14
-50 -8 -74 32 -41 68 -15 156 75 256 117 130 271 187 355 130z m-39 -68 c34
-19 51 -65 39 -109 -14 -52 -57 -87 -126 -101 -68 -14 -104 -7 -104 21 0 38
29 89 62 109 41 26 101 24 106 -3 5 -24 -25 -57 -51 -57 -20 0 -20 0 1 21 23
20 22 39 -2 39 -20 0 -68 -57 -64 -77 2 -13 14 -19 41 -21 79 -7 140 66 103
123 -46 70 -172 29 -217 -70 -24 -51 -24 -77 -1 -105 16 -19 27 -22 79 -21 33
0 80 8 104 16 l44 15 -28 -25 c-26 -23 -119 -56 -198 -70 -31 -6 -39 -3 -58
20 -41 53 -23 139 45 215 66 73 169 110 225 80z"/>
<path d="M3254 4186 c-23 -7 -52 -21 -65 -31 -20 -14 -20 -16 -4 -11 52 19
133 36 165 36 26 0 31 3 20 10 -20 13 -66 11 -116 -4z"/>
<path d="M5125 4225 c-29 -28 -31 -42 -10 -73 14 -19 14 -25 0 -52 -19 -37
-12 -65 22 -87 23 -15 27 -15 58 1 31 17 34 17 58 1 31 -20 61 -13 83 20 14
22 14 27 0 57 -15 29 -15 35 0 66 14 30 14 35 0 57 -21 32 -49 39 -86 20 -27
-14 -33 -14 -52 0 -31 21 -45 19 -73 -10z m70 -35 c10 -11 23 -20 30 -20 7 0
20 9 30 20 10 11 24 20 32 20 24 0 26 -30 4 -54 -11 -12 -21 -26 -21 -31 0 -5
10 -19 21 -31 22 -24 20 -54 -4 -54 -8 0 -22 9 -32 20 -23 25 -33 25 -61 -1
-24 -22 -54 -20 -54 4 0 8 9 22 20 32 25 23 25 33 -1 61 -22 24 -20 54 4 54 8
0 22 -9 32 -20z"/>
<path d="M2533 4188 c-37 -18 -47 -59 -29 -121 20 -70 54 -107 98 -107 86 0
148 41 148 97 0 37 -37 83 -66 83 -9 0 -32 14 -51 30 -35 31 -63 36 -100 18z
m83 -55 c13 -14 36 -28 51 -29 30 -3 43 -19 43 -52 0 -17 -9 -27 -35 -38 -58
-24 -92 -19 -115 19 -11 17 -23 47 -26 65 -12 62 37 83 82 35z"/>
<path d="M1077 3992 c-21 -23 -22 -51 -1 -80 15 -21 15 -25 0 -41 -49 -54 31
-134 85 -85 16 14 20 14 43 -1 33 -22 64 -16 89 16 18 25 18 28 3 61 -15 31
-15 38 -2 63 8 15 12 35 9 44 -14 40 -71 55 -103 26 -15 -14 -18 -14 -30 0
-17 21 -73 19 -93 -3z m102 -52 c7 0 24 9 39 20 23 19 27 19 41 5 13 -13 12
-18 -13 -43 l-27 -29 26 -31 c41 -49 5 -75 -42 -30 l-23 21 -23 -21 c-13 -12
-29 -22 -35 -22 -24 0 -25 31 -2 55 l22 24 -21 29 c-11 17 -21 35 -21 40 0 19
25 19 46 1 11 -11 26 -19 33 -19z"/>
<path d="M4393 3996 c-71 -18 -169 -67 -220 -110 -23 -20 -55 -39 -72 -42
-155 -31 -115 -285 61 -388 53 -31 147 -56 210 -56 36 0 59 -7 90 -27 37 -25
51 -28 122 -28 58 0 91 5 117 18 29 14 41 16 65 6 51 -19 203 -13 270 11 32
12 77 21 98 21 184 -7 302 131 236 276 -39 88 -159 173 -265 188 -37 6 -57 16
-81 41 -75 81 -229 115 -359 79 -58 -15 -65 -15 -94 0 -44 22 -116 27 -178 11z
m141 -36 l25 -9 -55 -55 c-38 -39 -65 -57 -90 -62 -20 -4 -52 -20 -70 -37
l-34 -29 -40 27 -41 28 46 32 c25 18 70 43 100 56 64 28 71 39 18 29 -46 -8
-110 -40 -152 -75 -17 -15 -36 -25 -43 -23 -15 5 43 49 108 82 84 42 175 56
228 36z m358 -16 c56 -19 134 -83 103 -84 -11 0 -45 -11 -75 -23 -45 -18 -63
-21 -90 -14 -48 12 -129 -7 -180 -44 l-40 -29 -35 27 c-31 25 -33 29 -19 44
39 43 185 97 269 99 32 1 36 3 20 10 -62 27 -174 0 -271 -65 -72 -49 -74 -50
-74 -36 0 28 102 101 170 122 45 13 174 10 222 -7z m274 -135 c74 -28 157
-107 174 -166 34 -113 -49 -203 -186 -203 -24 0 -47 6 -54 14 -9 12 -5 16 27
21 89 15 142 39 173 79 11 15 6 13 -25 -7 -44 -29 -108 -46 -172 -47 -41 0
-42 0 -62 55 -12 31 -21 64 -21 73 0 29 -49 120 -76 141 -13 10 -24 21 -24 25
0 11 95 35 142 35 26 1 73 -9 104 -20z m-961 -18 c63 -29 82 -57 88 -131 5
-48 17 -86 46 -144 l40 -79 -54 6 c-155 16 -285 140 -285 272 0 80 78 116 165
76z m290 -10 c63 -29 90 -67 126 -176 17 -55 42 -123 55 -152 l22 -52 -30 -10
c-51 -18 -139 -13 -175 9 -18 11 -33 21 -33 23 0 2 25 -2 54 -10 38 -10 65
-11 88 -5 38 11 31 14 -60 31 -104 20 -148 47 -178 108 -36 72 -44 175 -18
205 20 22 69 47 94 47 8 0 33 -8 55 -18z m381 -16 c60 -30 87 -69 108 -155 9
-36 30 -92 46 -124 17 -33 29 -61 27 -63 -2 -2 -37 -10 -78 -19 -76 -16 -160
-13 -219 7 -43 15 -37 29 8 18 53 -12 221 -11 202 1 -8 5 -42 10 -74 10 -33 0
-87 5 -122 11 -71 12 -63 2 -113 159 l-31 95 28 28 c32 31 91 56 138 57 16 0
52 -11 80 -25z"/>
<path d="M4120 3590 c31 -44 86 -86 129 -99 74 -22 82 -5 8 19 -20 6 -61 34
-91 61 -61 56 -77 62 -46 19z"/>
<path d="M2090 3994 c-8 -2 -76 -8 -150 -12 -146 -10 -186 -23 -254 -82 -18
-17 -42 -30 -52 -30 -36 0 -124 -53 -176 -106 -29 -30 -58 -54 -64 -54 -6 0
-28 -15 -50 -34 -60 -51 -104 -154 -116 -269 -5 -51 -12 -113 -15 -139 -7 -62
28 -199 67 -260 16 -26 32 -65 36 -85 10 -56 79 -118 202 -180 116 -60 164
-67 220 -33 48 29 59 61 41 113 -11 31 -14 64 -9 129 5 78 10 92 43 142 21 31
41 56 47 56 5 0 29 19 54 43 88 83 111 99 171 118 33 10 83 19 110 19 28 0 66
5 85 10 40 12 127 0 225 -30 33 -10 73 -21 89 -25 17 -3 41 -14 55 -24 66 -46
186 -53 239 -14 46 34 72 81 72 132 0 54 -35 135 -74 170 -14 14 -37 43 -51
66 -29 50 -90 107 -144 135 -23 11 -68 38 -102 60 -33 21 -82 46 -108 55 -27
9 -57 25 -67 36 -25 28 -77 54 -144 72 -55 15 -152 26 -180 21z m119 -44 c59
-10 153 -49 165 -68 3 -5 -12 -22 -34 -38 -39 -30 -100 -110 -100 -132 0 -24
-18 -12 -23 16 -9 43 -87 153 -134 189 -34 25 -39 33 -25 36 31 8 86 7 151 -3z
m-192 -37 c62 -29 110 -83 152 -172 89 -188 50 -350 -95 -395 -21 -6 -21 -5
-16 88 5 107 -12 182 -54 232 -29 33 -28 30 10 -49 18 -38 29 -80 32 -120 l4
-62 -18 60 c-48 159 -192 334 -295 361 -15 3 -27 9 -27 13 0 15 94 63 137 70
65 10 108 4 170 -26z m495 -104 l61 -31 -44 -20 c-24 -10 -57 -31 -73 -46 -34
-32 -76 -116 -76 -154 0 -15 -4 -30 -10 -33 -15 -9 -12 54 5 110 17 59 13 69
-11 24 -27 -53 -23 -153 10 -224 14 -32 24 -60 22 -62 -10 -10 -94 37 -119 66
-24 29 -27 41 -27 105 0 124 47 230 123 276 44 27 67 25 139 -11z m-763 1 c65
-30 152 -125 199 -219 68 -136 77 -232 27 -288 l-25 -28 6 47 c4 25 1 69 -6
96 -13 54 -63 142 -80 142 -6 0 -3 -12 8 -27 25 -36 48 -81 56 -113 4 -14 -7
-2 -23 26 -45 74 -104 138 -177 190 -67 48 -178 93 -228 94 -29 0 -29 0 -10
21 10 12 42 34 69 50 60 35 120 38 184 9z m939 -106 c29 -14 66 -42 82 -62
l30 -37 -48 -10 c-89 -20 -153 -79 -168 -153 -4 -17 -10 -32 -15 -32 -14 0
-10 68 6 107 18 43 13 54 -9 21 -24 -37 -29 -106 -13 -160 8 -27 11 -48 6 -48
-22 0 -88 41 -112 70 -69 82 -26 263 74 313 49 24 107 21 167 -9z m-1052 -54
c123 -60 251 -205 275 -309 10 -44 -4 -101 -31 -126 -20 -18 -20 -17 -20 23 0
47 -32 141 -60 174 -15 17 -12 6 10 -47 41 -98 37 -124 -7 -42 -51 95 -154
191 -229 213 -91 26 -183 1 -263 -71 -47 -43 -50 -35 -21 51 27 76 65 131 109
155 55 30 152 21 237 -21z m1187 -99 c14 -6 40 -31 58 -57 94 -138 3 -274
-152 -228 -70 21 -119 66 -119 110 0 119 114 212 213 175z m-1225 -67 c95 -47
192 -178 207 -279 5 -33 0 -49 -25 -93 l-31 -53 -28 40 c-27 42 -68 77 -78 68
-2 -3 4 -10 15 -16 10 -6 27 -22 37 -37 l17 -27 -34 26 c-104 80 -200 74 -294
-18 -28 -27 -54 -57 -57 -65 -5 -13 -7 -13 -16 0 -26 36 -53 131 -58 201 -5
70 -3 81 23 129 71 130 206 182 322 124z m667 -106 c-5 -4 -25 -8 -43 -8 l-33
0 22 29 21 28 22 -21 c13 -13 17 -24 11 -28z m-625 -283 c65 -45 90 -97 90
-185 0 -41 6 -89 12 -108 12 -31 11 -35 -11 -53 -38 -31 -91 -24 -184 22 -187
95 -228 150 -178 247 56 108 176 143 271 77z"/>
<path d="M2162 3925 c32 -8 76 -24 98 -35 22 -11 40 -17 40 -12 0 17 -95 55
-144 59 l-51 3 57 -15z"/>
<path d="M1832 3911 c-19 -5 -39 -14 -45 -21 -9 -9 -5 -9 18 -3 17 4 61 8 98
7 37 -1 64 3 60 7 -13 13 -94 19 -131 10z"/>
<path d="M2405 3812 c-43 -8 -31 -17 25 -18 32 0 57 3 55 7 -6 9 -55 16 -80
11z"/>
<path d="M1598 3791 c-26 -9 -79 -41 -66 -41 3 0 23 7 44 16 25 11 56 15 92
12 29 -3 49 -1 45 3 -13 13 -86 19 -115 10z"/>
<path d="M2540 3701 c-20 -6 -13 -9 37 -15 36 -4 86 -19 120 -36 69 -36 71
-36 47 -9 -42 47 -147 78 -204 60z"/>
<path d="M1398 3641 c-44 -28 -87 -86 -74 -99 3 -3 7 -3 9 -1 41 58 65 82 109
103 43 20 48 25 27 26 -14 0 -46 -13 -71 -29z"/>
<path d="M2710 3521 c-11 -8 -3 -11 33 -11 26 0 62 -7 78 -16 37 -19 46 -14
19 11 -23 21 -108 31 -130 16z"/>
<path d="M1370 3431 c-47 -32 -100 -103 -100 -135 0 -14 10 -5 30 31 17 29 53
71 81 93 59 46 52 53 -11 11z"/>
<path d="M1436 3057 c-19 -19 -40 -46 -46 -61 -13 -35 -13 -96 0 -96 6 0 10
13 10 29 0 45 17 82 58 124 45 46 27 49 -22 4z"/>
<path d="M3680 3375 c-155 -32 -294 -101 -385 -190 -127 -125 -166 -276 -112
-436 80 -236 276 -412 569 -510 83 -28 95 -30 135 -19 52 15 127 78 153 130
19 37 19 37 92 42 141 9 235 80 307 232 50 104 61 155 62 269 0 102 -6 123
-62 207 -91 135 -251 239 -421 274 -92 19 -247 19 -338 1z m338 -41 c92 -19
178 -58 261 -119 77 -57 103 -105 103 -191 -1 -156 -122 -279 -286 -291 l-61
-4 55 23 c119 51 200 132 216 215 21 113 -79 232 -233 274 -84 24 -105 24
-101 3 2 -11 25 -22 68 -33 206 -52 291 -205 179 -325 -77 -84 -218 -141 -349
-140 -71 0 -95 5 -147 28 -184 83 -224 285 -78 386 43 30 53 49 29 57 -20 7
-119 -73 -148 -120 -23 -38 -30 -62 -34 -122 -4 -66 -2 -81 22 -129 50 -103
151 -168 286 -184 75 -9 194 -1 227 16 10 5 43 12 73 15 87 8 164 42 221 98
59 57 88 117 98 202 l7 62 17 -32 c22 -42 31 -109 23 -167 -6 -36 -18 -58 -58
-101 -79 -87 -201 -135 -343 -135 -66 0 -80 -6 -65 -30 12 -19 172 -6 251 20
65 22 91 37 152 83 20 16 37 26 37 22 0 -26 -69 -143 -110 -188 -83 -91 -191
-120 -334 -90 -69 14 -301 108 -411 166 -83 45 -169 127 -202 195 -67 137 -14
291 135 394 32 22 41 33 33 41 -8 8 -21 6 -46 -7 -65 -35 -125 -107 -173 -204
-41 -84 -45 -100 -46 -166 0 -62 4 -82 32 -138 83 -169 316 -303 647 -374 l30
-6 -39 -34 c-61 -53 -94 -60 -175 -35 -281 85 -502 282 -566 505 -25 86 -17
194 19 266 112 225 468 359 784 294z m-474 -447 c27 -55 116 -132 184 -157 37
-14 90 -24 155 -27 54 -3 100 -9 102 -13 3 -4 -23 -11 -58 -14 -73 -8 -184 7
-244 34 -49 21 -128 92 -149 132 -19 36 -34 117 -26 137 4 11 8 4 12 -19 4
-19 14 -52 24 -73z m-195 -110 c31 -64 115 -147 198 -195 87 -52 365 -169 421
-178 47 -7 55 -13 43 -33 -17 -28 -243 36 -398 112 -148 72 -241 154 -283 250
-22 50 -36 139 -25 164 6 14 10 7 15 -27 3 -25 17 -66 29 -93z"/>
<path d="M3944 3313 c9 -9 86 -33 86 -26 0 6 -67 33 -81 33 -7 0 -9 -3 -5 -7z"/>
<path d="M3710 3296 c-49 -11 -100 -31 -100 -40 0 -2 30 5 67 15 42 12 100 19
155 19 52 0 88 4 88 10 0 14 -142 11 -210 -4z"/>
<path d="M3804 3191 c-88 -22 -146 -90 -146 -170 0 -183 239 -252 425 -124 60
42 106 153 77 188 -17 21 -30 9 -30 -26 0 -106 -113 -189 -257 -189 -56 0
-101 17 -140 53 -36 32 -27 40 15 13 114 -76 281 -45 333 61 42 86 -14 153
-151 182 -90 19 -94 20 -126 12z m77 -41 c40 -11 86 -52 100 -89 20 -52 -50
-96 -115 -71 -26 9 -28 13 -22 45 5 27 4 35 -8 35 -17 0 -36 -30 -36 -56 0
-10 10 -28 22 -41 39 -41 156 -28 190 21 16 23 8 84 -16 119 l-24 35 28 -9
c100 -35 96 -155 -7 -205 -54 -26 -156 -24 -209 4 -59 30 -96 76 -88 110 9 36
62 91 99 101 41 12 45 12 86 1z"/>
<path d="M3801 2775 c13 -13 139 -12 162 1 13 8 -8 10 -77 10 -63 -1 -92 -4
-85 -11z"/>
<path d="M4185 2480 c-11 -5 -50 -9 -87 -9 -71 -1 -91 -15 -35 -24 41 -6 117
7 155 27 22 13 24 15 7 15 -11 0 -29 -4 -40 -9z"/>
<path d="M3535 2403 c65 -51 335 -152 335 -124 0 5 -37 19 -82 31 -46 12 -122
42 -170 66 -91 46 -117 54 -83 27z"/>
<path d="M4798 3221 c-82 -52 -119 -183 -75 -267 17 -32 81 -94 97 -94 6 0 10
-11 10 -25 0 -32 31 -93 59 -119 16 -14 21 -31 21 -68 0 -64 29 -119 84 -158
43 -31 44 -33 34 -68 -6 -21 -19 -54 -29 -74 -23 -45 -24 -70 -4 -108 37 -72
123 -66 186 14 l22 28 15 -32 c28 -57 111 -79 148 -39 14 16 19 36 19 79 -1
49 -8 74 -48 153 -26 52 -47 109 -47 126 0 43 -27 119 -61 169 -18 27 -29 56
-29 78 0 38 -27 99 -68 153 -20 28 -25 45 -26 101 -1 56 -5 72 -28 102 -62 81
-193 104 -280 49z m157 -12 c22 -6 56 -28 77 -49 33 -33 38 -44 38 -84 0 -25
-4 -46 -10 -46 -5 0 -10 15 -10 34 0 24 -8 44 -26 63 -25 26 -25 27 -11 3 8
-14 18 -41 22 -59 l7 -34 -52 6 c-60 7 -80 20 -77 50 3 29 -29 35 -38 8 -16
-52 23 -85 115 -97 61 -8 118 -52 151 -115 25 -50 24 -54 -9 -30 -41 29 -97
48 -190 65 -86 16 -136 42 -147 76 -4 11 -10 20 -15 20 -12 0 -1 -30 19 -54
27 -30 87 -56 173 -72 89 -17 123 -31 151 -62 17 -19 14 -18 -43 5 -55 22
-106 33 -216 49 -63 9 -124 87 -124 159 0 66 58 147 116 165 40 12 53 12 99
-1z m62 -389 c98 -32 173 -81 199 -132 l14 -26 -43 23 c-23 12 -73 30 -112 39
-38 10 -90 29 -115 43 l-45 26 24 -27 c17 -18 55 -36 120 -56 104 -32 154 -58
170 -88 8 -15 -9 -9 -77 25 -48 24 -111 48 -139 53 -29 5 -64 17 -78 26 -30
19 -65 74 -65 101 0 18 4 19 55 12 30 -4 71 -13 92 -19z m36 -171 c102 -34
163 -76 207 -144 68 -104 99 -196 86 -250 -5 -20 -13 -25 -35 -25 -38 0 -66
35 -80 102 -15 67 -57 122 -134 176 -34 23 -77 57 -96 75 -22 21 -30 25 -23
12 13 -24 52 -61 111 -103 57 -40 44 -41 -24 -2 -76 44 -115 91 -115 140 0 48
10 50 103 19z m17 -272 c-23 -60 -22 -57 -12 -57 4 0 19 21 32 48 14 26 26 49
27 51 5 8 53 -30 63 -49 20 -38 -52 -140 -99 -140 -52 0 -79 60 -47 105 8 11
19 39 26 62 7 23 17 40 21 37 5 -3 0 -28 -11 -57z"/>
<path d="M5295 2395 c4 -11 10 -41 13 -68 5 -53 22 -75 22 -29 0 33 -18 92
-33 107 -7 7 -7 3 -2 -10z"/>
<path d="M2350 3142 c-200 -52 -319 -222 -308 -442 3 -70 10 -98 33 -145 74
-152 241 -234 475 -235 165 0 286 44 383 141 80 81 119 166 125 275 6 113 -14
168 -92 251 -70 75 -180 135 -294 158 -96 20 -240 18 -322 -3z m335 -38 c195
-50 335 -183 335 -319 0 -63 -20 -95 -61 -95 -34 0 -36 6 -11 33 16 18 16 19
-2 16 -33 -7 -56 -50 -63 -121 -7 -83 -13 -94 -42 -79 -29 16 -60 -2 -68 -40
-6 -32 -15 -36 -33 -14 -7 8 -30 20 -52 27 -39 11 -39 12 -16 24 16 10 18 13
7 14 -28 0 -99 -29 -159 -65 -32 -19 -68 -35 -80 -35 -13 0 -37 16 -59 39 -20
21 -46 44 -58 50 -26 13 -73 14 -93 1 -22 -13 -40 7 -40 45 0 45 -31 114 -65
145 -26 23 -27 23 -16 3 9 -19 8 -23 -10 -28 -31 -10 -34 0 -22 70 40 235 217
365 473 349 41 -3 102 -12 135 -20z m-535 -514 c0 -23 8 -48 21 -64 21 -26 25
-27 79 -21 l57 7 43 -46 c61 -64 91 -68 179 -22 86 44 132 47 186 10 47 -32
65 -28 88 18 16 33 21 36 41 28 16 -6 30 -4 44 6 20 13 23 24 37 105 5 34 8
37 45 41 22 2 40 2 40 0 0 -1 -13 -29 -29 -61 -78 -154 -226 -233 -433 -232
-223 1 -379 80 -444 224 -26 58 -26 61 -8 74 17 12 21 11 37 -8 9 -12 17 -38
17 -59z"/>
<path d="M2322 3070 c-29 -10 -66 -29 -83 -41 -34 -24 -92 -99 -84 -107 3 -3
12 4 20 15 25 36 123 94 208 123 81 28 82 28 37 29 -25 0 -69 -9 -98 -19z"/>
<path d="M2522 3009 c-120 -23 -179 -120 -134 -221 23 -53 61 -82 126 -99 186
-47 329 157 194 277 -43 39 -117 56 -186 43z m140 -55 c39 -20 58 -53 58 -100
0 -50 -9 -60 -28 -33 -42 60 -162 64 -244 7 -36 -25 -38 -24 -38 21 0 102 142
161 252 105z m-11 -152 c37 -33 33 -47 -17 -68 -58 -24 -157 -10 -179 25 -17
29 54 70 122 71 33 0 50 -6 74 -28z"/>
<path d="M720 2894 c-221 -48 -441 -273 -489 -502 -31 -146 -5 -326 69 -478
156 -323 475 -524 832 -524 546 0 1026 400 958 798 -32 190 -165 332 -374 398
-131 41 -295 48 -441 19 -29 -6 -31 -3 -54 51 -31 70 -113 161 -180 197 -53
30 -163 57 -221 56 -19 0 -64 -7 -100 -15z m275 -62 c79 -38 149 -106 188
-185 30 -62 31 -67 17 -67 -21 0 -125 -73 -162 -113 l-38 -40 -36 36 c-73 76
-185 104 -263 64 -19 -9 -36 -17 -38 -17 -11 0 42 58 74 83 20 15 30 27 22 27
-26 -1 -105 -67 -138 -116 -37 -57 -61 -131 -61 -191 l0 -43 -41 0 c-33 0 -47
-6 -74 -33 -113 -113 5 -289 222 -328 32 -6 72 -18 88 -27 136 -71 188 -93
254 -107 42 -9 110 -31 151 -50 200 -90 348 -54 376 92 5 26 15 36 58 57 71
35 123 89 159 165 58 123 44 234 -38 310 -82 76 -195 81 -325 14 -70 -36 -79
-38 -124 -30 -59 10 -164 -5 -239 -33 -67 -26 -69 -25 -55 8 28 65 99 151 159
191 96 64 179 86 329 84 148 -1 243 -22 353 -80 289 -152 329 -494 88 -755
-55 -60 -81 -79 -156 -114 -395 -187 -889 -130 -1178 137 -89 82 -146 165
-188 272 -106 275 -71 519 95 675 157 146 358 190 521 114z m-686 -382 c-7
-39 -10 -98 -6 -158 18 -277 157 -501 398 -645 258 -152 618 -184 922 -82 39
13 73 23 75 20 7 -7 -110 -62 -198 -93 -147 -52 -236 -65 -400 -60 -123 5
-158 10 -230 33 -148 48 -232 98 -344 204 -227 218 -322 520 -241 769 14 46
29 82 31 79 3 -3 0 -33 -7 -67z m533 48 c72 -21 153 -111 119 -132 -4 -3 -18
-32 -30 -65 -20 -51 -28 -61 -64 -77 -57 -26 -178 -26 -229 0 -35 17 -38 22
-38 60 0 94 41 169 110 204 50 25 76 27 132 10z m789 -120 c85 -29 139 -104
139 -194 l0 -49 -24 52 c-41 87 -141 129 -241 99 -27 -8 -59 -17 -70 -20 -13
-4 -31 4 -53 23 l-33 29 36 22 c75 46 177 62 246 38z m-294 -106 c47 -24 83
-65 83 -94 0 -17 -4 -19 -32 -11 -18 4 -82 8 -143 8 -143 0 -199 -18 -315 -98
-170 -116 -178 -120 -235 -125 -86 -7 -202 55 -241 130 -35 67 -2 148 60 148
18 0 62 -15 96 -32 56 -29 72 -33 145 -33 78 0 87 2 171 46 84 44 157 72 214
83 55 10 155 -1 197 -22z m285 -22 c20 -6 50 -26 66 -44 76 -87 36 -213 -92
-286 -28 -17 -53 -30 -56 -30 -3 0 -13 13 -23 29 -10 18 -39 40 -72 55 -29 14
-56 30 -59 35 -3 5 6 16 20 26 37 24 56 78 52 144 l-3 56 45 12 c58 15 77 15
122 3z m-246 -101 c49 -13 51 -17 29 -59 -21 -40 -41 -43 -136 -24 -145 29
-242 8 -327 -72 -37 -35 -71 -48 -149 -57 -45 -5 -59 7 -20 16 12 4 67 38 122
78 108 78 162 105 228 118 63 13 202 13 253 0z m-129 -154 c7 -22 30 -57 51
-78 36 -37 141 -97 169 -97 20 0 26 -25 13 -50 -14 -27 -84 -59 -128 -60 -47
0 -178 46 -235 82 -50 32 -103 91 -130 144 -15 30 -15 32 6 52 40 38 87 52
166 49 l74 -2 14 -40z m93 0 c14 -13 48 -35 77 -49 57 -28 83 -58 83 -94 0
-20 -4 -22 -22 -16 -93 28 -161 73 -194 129 -13 23 -24 47 -24 54 0 17 51 2
80 -24z m-385 -85 c8 -16 30 -46 47 -66 l32 -37 -34 8 c-19 4 -69 23 -110 42
l-75 35 53 18 c29 9 56 20 59 24 10 9 11 8 28 -24z"/>
<path d="M690 2821 c-69 -22 -114 -45 -162 -83 -55 -43 -46 -52 12 -13 88 59
213 94 340 95 33 0 41 3 30 10 -25 16 -160 10 -220 -9z"/>
<path d="M1335 2549 c-96 -22 -225 -89 -238 -123 -4 -10 10 -4 33 13 61 44
163 81 259 93 59 8 79 14 66 19 -26 10 -70 9 -120 -2z"/>
<path d="M2001 2255 c0 -5 4 -41 9 -79 11 -91 -1 -165 -44 -251 -19 -38 -33
-71 -32 -73 9 -8 69 99 83 147 17 59 14 194 -5 241 -6 14 -11 21 -11 15z"/>
<path d="M1010 1934 c0 -20 72 -95 116 -120 63 -37 66 -24 4 16 -28 18 -66 51
-85 73 -19 22 -35 36 -35 31z"/>
<path d="M4740 2492 c-17 -14 -25 -37 -35 -100 -18 -110 -38 -144 -93 -154
-52 -9 -84 -43 -112 -118 -20 -54 -22 -55 -61 -57 -23 0 -55 -11 -77 -25 -20
-14 -66 -30 -102 -37 -94 -19 -161 -46 -208 -87 -53 -45 -67 -91 -48 -160 7
-27 13 -62 11 -79 -3 -52 17 -106 54 -143 l36 -36 0 -186 c-1 -204 -8 -253
-76 -520 -21 -86 -39 -180 -39 -210 0 -63 -30 -123 -84 -163 -58 -45 -57 -86
4 -109 14 -5 81 -10 150 -9 107 0 142 -4 240 -29 147 -37 252 -50 415 -50 151
0 291 20 373 54 47 18 78 23 159 24 178 2 218 41 127 126 -47 43 -47 43 -50
117 -2 42 -18 132 -38 209 -71 275 -92 457 -76 655 10 113 13 125 55 210 70
138 71 223 4 300 -16 18 -51 42 -79 54 -44 19 -157 41 -230 45 -20 1 -28 10
-42 46 -10 25 -34 59 -55 77 l-37 31 18 91 c10 50 19 116 20 147 0 50 -3 59
-27 80 -33 29 -67 31 -97 6z m58 -50 c2 -13 -13 -70 -32 -127 -36 -102 -42
-138 -30 -169 11 -30 22 -16 17 22 -3 27 6 70 36 157 45 133 53 119 21 -35
-27 -129 -26 -133 19 -172 35 -30 61 -72 61 -98 0 -10 -40 -33 -77 -44 -22 -7
-23 -4 -23 38 0 47 -7 76 -19 76 -4 0 -5 -27 -3 -61 3 -41 0 -64 -8 -72 -10
-10 -11 -4 -6 28 13 89 -40 175 -107 175 -42 0 -92 -44 -102 -90 -7 -34 -25
-41 -25 -10 0 23 34 96 58 123 8 9 25 17 38 17 63 0 101 50 123 165 21 106 21
107 39 103 9 -2 18 -14 20 -26z m-100 -324 c31 -34 44 -78 37 -125 -7 -46 -8
-47 -46 -56 -21 -5 -36 3 -82 44 l-57 50 15 37 c29 71 91 94 133 50z m-193
-107 c17 -10 58 -43 91 -73 79 -71 128 -108 142 -108 20 0 13 28 -11 47 l-24
17 101 39 c130 50 186 53 245 14 23 -15 55 -48 71 -73 36 -57 28 -86 -40 -147
-81 -73 -237 -137 -416 -173 l-83 -17 -108 37 c-169 58 -301 148 -318 216 -8
34 33 92 47 66 5 -9 12 -16 17 -16 4 0 32 30 62 67 58 72 128 123 168 123 15
0 40 -8 56 -19z m-235 -56 c0 -2 -25 -16 -55 -30 -163 -78 -116 -219 110 -333
175 -87 483 -152 549 -115 14 8 -5 11 -78 15 -106 6 -143 21 -80 33 130 24
324 110 393 174 44 40 51 33 26 -26 -8 -20 -14 -38 -11 -40 2 -2 17 12 34 31
55 63 53 167 -5 244 -14 18 -22 36 -19 39 10 10 98 -41 120 -70 17 -23 21 -43
21 -95 -1 -92 -43 -175 -142 -282 -42 -44 -73 -83 -70 -86 8 -8 48 15 82 47
l30 28 0 -212 c0 -229 7 -278 76 -546 17 -63 32 -141 36 -175 4 -54 2 -67 -25
-118 -17 -31 -28 -59 -24 -62 13 -13 31 -4 49 23 l18 30 40 -34 c50 -42 42
-52 -47 -61 -58 -6 -68 -4 -68 9 0 28 -17 27 -81 -3 -214 -100 -555 -111 -859
-28 -41 11 -97 31 -124 44 -52 26 -82 20 -56 -11 11 -13 5 -15 -56 -15 -64 0
-139 12 -150 23 -3 3 19 29 49 59 l54 54 22 -33 c11 -18 25 -33 31 -33 19 0
20 21 2 48 -47 66 -45 139 12 362 60 241 70 309 71 508 0 149 2 171 15 166 66
-29 234 -47 254 -27 4 4 -41 15 -100 25 -166 28 -244 75 -261 158 l-6 35 38
-34 c39 -34 122 -77 131 -68 3 3 -22 26 -56 52 -175 135 -168 248 20 317 44
16 90 23 90 13z"/>
<path d="M5136 1047 c3 -43 21 -140 41 -215 31 -115 37 -154 37 -242 1 -83 -3
-112 -17 -138 -24 -45 -14 -54 12 -11 49 80 47 176 -8 367 -17 57 -35 138 -42
180 -19 121 -30 149 -23 59z"/>
<path d="M4157 975 c-6 -60 -22 -129 -48 -209 -22 -65 -42 -137 -45 -160 -11
-80 29 -168 96 -209 l35 -22 -46 55 c-48 57 -69 103 -69 151 0 15 15 76 34
136 44 141 58 214 54 288 -3 59 -3 58 -11 -30z"/>
<path d="M3166 2269 c-54 -13 -98 -42 -144 -94 l-39 -44 -49 15 c-27 8 -62 14
-79 12 -19 -1 -45 8 -70 24 -144 95 -340 35 -460 -141 -129 -191 -162 -452
-77 -616 62 -121 215 -189 349 -156 97 25 183 102 183 165 0 32 4 32 42 0 115
-96 272 -108 421 -33 56 29 115 86 129 125 l12 34 102 0 c132 0 212 24 278 81
66 58 90 108 90 190 1 177 -177 348 -437 419 -91 25 -196 33 -251 19z m239
-54 c80 -20 230 -95 283 -140 89 -77 106 -170 50 -265 -44 -73 -122 -115 -231
-125 -101 -10 -125 0 -146 55 -41 107 -177 268 -284 336 -26 16 -47 35 -47 43
0 24 85 98 126 109 49 14 170 8 249 -13z m-708 -36 c43 -16 92 -69 99 -106 10
-52 -3 -95 -48 -164 -64 -98 -79 -149 -88 -282 -9 -134 -37 -208 -93 -251 -72
-54 -182 -54 -238 0 -56 53 -83 127 -87 235 -11 255 129 508 311 565 52 16
107 17 144 3z m301 -101 c80 -40 215 -165 272 -250 63 -95 55 -165 -30 -242
-88 -80 -222 -107 -318 -66 -54 23 -132 98 -132 126 0 9 20 75 45 146 50 143
58 227 30 295 l-15 36 41 -6 c23 -3 71 -20 107 -39z m-204 -289 c-56 -171 -57
-173 -51 -263 3 -56 1 -100 -5 -111 -33 -61 -101 -103 -181 -111 l-52 -5 41
19 c54 26 111 95 129 157 9 27 18 93 21 145 7 127 15 152 77 256 30 49 58 103
62 119 l9 30 4 -32 c2 -19 -18 -97 -54 -204z m1026 49 c0 -84 -51 -163 -130
-203 -60 -30 -175 -49 -246 -40 -48 6 -54 9 -54 30 0 22 3 23 103 27 78 3 114
10 155 28 64 28 129 98 145 156 12 48 27 49 27 2z m-488 -306 c-23 -47 -109
-106 -183 -126 -124 -35 -231 -10 -324 77 -34 33 -55 61 -55 75 0 12 2 22 4
22 2 0 21 -16 42 -37 62 -58 116 -78 209 -78 66 1 91 6 139 28 77 36 139 86
162 134 l19 38 3 -48 c2 -33 -3 -60 -16 -85z"/>
<path d="M3282 2151 c-25 -16 -9 -46 26 -49 26 -3 32 0 32 15 0 35 -30 52 -58
34z m38 -26 c0 -9 -6 -12 -15 -9 -8 4 -15 10 -15 15 0 5 7 9 15 9 8 0 15 -7
15 -15z"/>
<path d="M3615 2004 c-20 -21 -3 -44 32 -44 28 0 40 24 23 45 -16 19 -35 19
-55 -1z m36 -17 c-1 -12 -15 -9 -19 4 -3 6 1 10 8 8 6 -3 11 -8 11 -12z"/>
<path d="M3421 1930 c-18 -10 -7 -56 16 -64 21 -8 48 17 40 38 -8 21 -41 36
-56 26z m37 -39 c3 -8 -1 -12 -9 -9 -7 2 -15 10 -17 17 -3 8 1 12 9 9 7 -2 15
-10 17 -17z"/>
<path d="M3580 1750 c-30 -11 -68 -19 -85 -20 -16 0 -37 -5 -45 -10 -25 -16
69 -12 127 5 28 8 56 22 63 30 15 18 10 18 -60 -5z"/>
<path d="M2611 2066 c-18 -22 -10 -61 13 -61 26 0 44 30 30 52 -15 23 -29 26
-43 9z m29 -20 c0 -8 -4 -18 -10 -21 -5 -3 -10 3 -10 14 0 12 5 21 10 21 6 0
10 -6 10 -14z"/>
<path d="M2434 2002 c-30 -20 -22 -72 12 -72 22 0 36 37 24 60 -11 21 -19 24
-36 12z m18 -44 c-15 -15 -26 -4 -18 18 5 13 9 15 18 6 9 -9 9 -15 0 -24z"/>
<path d="M2454 1776 c-9 -24 0 -51 18 -54 20 -4 40 30 32 52 -8 20 -43 21 -50
2z m36 -14 c0 -13 -12 -22 -22 -16 -10 6 -1 24 13 24 5 0 9 -4 9 -8z"/>
<path d="M2334 1596 c-11 -29 0 -51 26 -51 21 0 25 5 25 30 0 24 -5 31 -23 33
-13 2 -24 -3 -28 -12z m36 -21 c0 -8 -4 -15 -10 -15 -5 0 -10 7 -10 15 0 8 5
15 10 15 6 0 10 -7 10 -15z"/>
<path d="M2570 1440 c-6 -11 -34 -33 -63 -50 -48 -28 -43 -44 6 -19 45 23 102
89 78 89 -6 0 -15 -9 -21 -20z"/>
<path d="M3083 1884 c-8 -21 30 -59 51 -51 19 7 21 38 4 55 -17 17 -48 15 -55
-4z m45 -22 c6 -18 -15 -14 -22 4 -4 10 -1 14 6 12 6 -2 14 -10 16 -16z"/>
<path d="M2963 1774 c-9 -24 10 -49 38 -49 27 0 37 28 19 50 -17 20 -49 19
-57 -1z m45 -23 c3 -8 -1 -12 -9 -9 -7 2 -15 10 -17 17 -3 8 1 12 9 9 7 -2 15
-10 17 -17z"/>
<path d="M3145 1690 c-9 -15 3 -47 20 -54 36 -14 60 25 33 52 -15 15 -45 16
-53 2z m43 -29 c3 -8 -1 -12 -9 -9 -7 2 -15 10 -17 17 -3 8 1 12 9 9 7 -2 15
-10 17 -17z"/>
<path d="M2919 1556 c13 -15 86 -36 123 -36 13 1 37 7 53 14 28 12 25 13 -50
13 -44 0 -93 6 -109 12 -25 10 -27 10 -17 -3z"/>
<path d="M3673 1454 c-22 -22 -25 -31 -19 -70 8 -60 41 -123 72 -134 32 -13
106 -2 143 21 60 36 52 111 -15 144 -22 11 -53 30 -69 43 -37 30 -79 28 -112
-4z m101 -39 c13 -14 33 -25 44 -25 25 0 52 -25 52 -49 0 -30 -33 -51 -85 -53
-47 -3 -49 -2 -72 37 -25 44 -30 100 -10 108 27 11 49 6 71 -18z"/>
<path d="M525 1411 c-11 -5 -29 -18 -39 -30 -11 -11 -28 -21 -38 -21 -32 0
-68 -45 -68 -84 0 -44 42 -81 103 -90 68 -10 95 0 119 48 44 86 41 152 -8 175
-29 13 -41 13 -69 2z m65 -51 c12 -23 0 -82 -25 -117 -39 -55 -177 -2 -146 56
12 21 35 33 54 25 7 -2 23 9 35 26 27 35 66 40 82 10z"/>
<path d="M1600 1289 c-19 -6 -50 -22 -67 -35 -31 -23 -38 -24 -120 -19 -85 6
-89 5 -138 -24 -27 -17 -63 -41 -78 -53 -23 -19 -45 -24 -122 -28 -91 -5 -95
-7 -162 -52 -58 -40 -79 -48 -141 -57 -56 -7 -82 -16 -109 -38 -71 -56 -98
-73 -119 -73 -39 0 -143 -60 -185 -108 -67 -76 -101 -158 -107 -262 -4 -82 -3
-94 22 -144 39 -80 117 -132 243 -162 55 -13 104 -15 253 -11 241 7 325 22
990 176 476 110 663 188 764 319 100 131 130 250 88 346 -18 40 -29 50 -77 72
-30 14 -85 30 -123 35 -82 11 -90 14 -172 49 -86 38 -235 51 -294 26 -54 -23
-85 -20 -169 13 -90 36 -132 43 -177 30z m112 -45 c39 -13 53 -25 87 -77 68
-105 92 -194 91 -337 -1 -52 -2 -106 -3 -119 -6 -77 81 24 114 133 18 58 21
84 16 165 -3 53 -13 116 -21 140 -27 74 -27 74 69 70 98 -5 103 -9 136 -109
31 -97 29 -213 -5 -310 -47 -130 -37 -148 40 -72 88 87 134 204 134 345 l0 67
43 -6 c97 -16 92 -10 95 -106 2 -55 -2 -100 -11 -127 -8 -23 -11 -44 -6 -46
14 -9 39 96 39 167 0 37 4 68 8 68 5 0 17 -9 28 -21 13 -15 20 -40 22 -90 4
-63 1 -77 -29 -137 -43 -88 -141 -187 -229 -229 -145 -70 -343 -125 -880 -246
-529 -120 -795 -140 -985 -77 -71 24 -141 78 -161 127 -20 47 -19 47 33 6 88
-66 205 -103 331 -103 158 0 580 80 1222 231 323 77 464 126 545 193 50 42 21
39 -44 -5 -113 -75 -281 -123 -926 -265 -418 -92 -638 -128 -795 -128 -118 0
-143 3 -195 24 -73 28 -121 58 -159 98 -28 30 -29 34 -23 99 8 84 42 154 103
217 46 46 77 67 120 80 19 6 27 -3 62 -76 43 -88 105 -171 215 -287 72 -76
104 -88 91 -34 -25 109 -91 252 -175 384 -27 42 -49 78 -49 81 0 11 55 42 85
48 28 5 32 2 67 -56 21 -34 87 -132 148 -219 60 -86 110 -163 110 -170 0 -7 6
-18 14 -24 24 -20 39 15 44 99 3 44 -1 101 -8 132 -17 70 -70 186 -121 260
-22 33 -39 61 -37 63 18 15 55 25 96 25 l49 0 80 -112 c101 -143 119 -174 142
-240 25 -74 46 -75 61 -1 23 110 -8 251 -81 364 -42 64 -42 64 3 90 10 5 38
10 64 11 43 2 48 0 84 -42 47 -55 122 -195 145 -270 9 -30 24 -95 34 -145 22
-110 38 -120 70 -43 34 80 39 185 12 281 -21 76 -60 162 -100 222 -25 37 -26
42 -3 48 32 9 48 7 94 -9z m-135 -41 c32 -41 94 -178 109 -239 21 -94 13 -125
-10 -36 -10 41 -43 122 -72 180 -30 59 -54 108 -54 110 0 8 15 -1 27 -15z
m-22 -41 c52 -79 135 -319 135 -390 0 -39 -10 -20 -26 47 -22 98 -72 215 -124
295 -45 69 -48 82 -18 85 4 1 19 -16 33 -37z m344 -22 c47 -108 74 -301 47
-335 -14 -19 -15 -15 -16 55 0 91 -19 171 -64 266 -33 70 -33 71 -11 66 17 -3
30 -18 44 -52z m63 -11 c9 -35 17 -100 16 -144 l0 -80 -14 79 c-8 43 -25 106
-39 139 -18 46 -21 63 -12 69 22 14 32 2 49 -63z m321 15 c25 -44 -3 -331 -34
-350 -7 -4 -7 8 -2 33 15 73 8 243 -13 304 l-20 56 29 -12 c17 -7 34 -21 40
-31z m46 -82 c-2 -131 -16 -150 -18 -24 -1 73 3 111 9 107 6 -3 9 -41 9 -83z
m-1065 35 c28 -37 76 -135 76 -156 0 -8 -15 11 -34 42 -19 31 -48 74 -65 94
-28 34 -32 53 -11 53 5 0 20 -15 34 -33z m-8 -73 c55 -77 107 -186 102 -216
-2 -19 -10 -11 -40 43 -21 36 -67 106 -103 155 -56 76 -63 90 -48 95 23 8 36
-2 89 -77z m-281 -54 c39 -59 95 -174 95 -196 0 -4 -25 32 -55 80 -30 49 -68
105 -85 125 -22 29 -26 41 -18 49 7 7 13 12 14 12 1 0 23 -31 49 -70z m-23
-55 c90 -125 138 -223 137 -282 0 -41 -2 -45 -12 -29 -7 10 -43 62 -82 115
-38 53 -93 134 -123 181 -52 83 -53 85 -30 92 41 11 52 4 110 -77z m-283 -72
c60 -98 111 -196 107 -201 -5 -4 -152 215 -162 243 -4 9 -1 15 7 15 8 0 30
-26 48 -57z m-24 -46 c27 -45 80 -122 117 -171 38 -50 68 -95 68 -100 0 -13
-69 62 -137 148 -41 52 -113 178 -113 199 0 21 20 -2 65 -76z"/>
<path d="M1750 1196 c0 -3 13 -27 29 -53 16 -27 39 -79 51 -116 12 -38 24 -66
27 -63 8 8 -27 118 -50 156 -25 42 -57 85 -57 76z"/>
<path d="M2163 1093 c15 -45 18 -74 14 -128 -4 -51 -3 -65 4 -52 19 33 13 150
-10 196 -12 22 -23 41 -25 41 -1 0 6 -26 17 -57z"/>
<path d="M1436 1115 c10 -16 31 -51 47 -78 17 -26 36 -69 43 -95 12 -43 13
-44 13 -14 1 39 -45 134 -89 182 -30 33 -31 33 -14 5z"/>
<path d="M1055 974 c19 -31 42 -80 51 -108 10 -28 19 -45 22 -38 6 20 -26 103
-61 154 -44 66 -53 60 -12 -8z"/>
<path d="M710 906 c0 -4 15 -33 34 -64 19 -32 46 -77 60 -102 33 -57 34 -35 2
28 -27 52 -96 152 -96 138z"/>
<path d="M341 493 c42 -66 163 -114 299 -119 84 -3 89 -2 45 7 -231 45 -230
44 -313 101 -30 21 -40 24 -31 11z"/>
<path d="M3360 1164 c-135 -22 -211 -54 -321 -135 -111 -82 -197 -186 -241
-290 -18 -45 -22 -74 -22 -169 -1 -111 0 -118 32 -182 59 -120 146 -168 305
-168 51 0 119 7 151 15 238 62 475 235 562 409 35 72 39 87 39 160 0 69 -4 90
-28 138 -41 84 -136 158 -252 196 -60 20 -178 34 -225 26z m-9 -71 c-72 -43
-175 -137 -169 -155 2 -6 24 -18 49 -26 53 -18 162 -123 201 -194 15 -27 25
-48 22 -48 -3 0 -32 14 -66 31 -66 33 -165 121 -199 176 -11 18 -27 33 -34 33
-22 0 -94 -89 -126 -157 -17 -35 -36 -92 -43 -126 -12 -56 -14 -59 -21 -34
-19 73 17 175 93 258 39 42 48 59 40 67 -14 14 -52 15 -96 3 -40 -12 -42 -1
-3 22 34 20 73 22 104 6 18 -10 23 -8 36 12 49 78 181 169 245 169 28 0 25 -3
-33 -37z m286 -18 c104 -54 108 -61 108 -158 0 -69 -5 -92 -30 -147 -16 -36
-51 -94 -78 -129 -31 -41 -46 -69 -42 -80 5 -13 17 -5 56 37 61 67 117 182
134 275 12 72 12 72 26 42 8 -17 14 -64 14 -110 0 -71 -4 -88 -34 -147 -114
-228 -502 -437 -741 -399 -60 10 -128 39 -149 64 -11 14 -7 14 35 1 61 -18
205 -18 277 1 71 18 177 62 197 81 10 9 11 17 4 24 -7 7 -31 1 -75 -19 -106
-48 -176 -64 -276 -64 -84 -1 -97 2 -160 34 -59 30 -70 39 -82 74 -19 56 -17
172 4 236 26 81 64 145 93 159 38 18 112 40 112 33 0 -3 -11 -19 -25 -35 -85
-101 -101 -235 -43 -360 35 -77 53 -65 54 35 1 94 21 170 64 242 31 52 69 101
73 94 59 -89 156 -168 264 -214 99 -43 114 -36 76 38 -59 120 -138 209 -222
251 l-33 18 31 32 c36 37 124 92 178 112 66 23 115 17 190 -21z m-488 -44
c-33 -38 -62 -51 -73 -32 -6 8 80 71 98 71 4 0 -7 -18 -25 -39z"/>
<path d="M3300 957 c0 -2 22 -18 49 -35 51 -33 79 -66 124 -144 31 -53 42 -62
27 -22 -28 72 -79 138 -139 176 -41 25 -61 34 -61 25z"/>
<path d="M3095 757 c-30 -47 -55 -127 -54 -175 l1 -47 13 66 c7 36 25 90 40
119 28 55 28 79 0 37z"/>
<path d="M3230 409 c-36 -10 -78 -18 -95 -18 -16 -1 -37 -6 -45 -12 -26 -18
108 1 179 26 78 28 54 30 -39 4z"/>
<path d="M2416 509 c-29 -23 -33 -55 -12 -85 12 -16 12 -22 -1 -45 -35 -59 21
-119 80 -85 25 14 30 14 57 -2 27 -15 32 -16 57 -2 34 19 43 72 18 100 -13 15
-13 19 -1 29 56 47 -8 130 -74 96 -25 -13 -32 -13 -57 0 -36 19 -35 19 -67 -6z
m69 -39 c23 -25 33 -25 62 2 21 20 25 20 39 7 13 -14 13 -18 -6 -41 -25 -32
-25 -34 -1 -65 34 -43 3 -74 -34 -33 -23 25 -33 25 -61 -1 -24 -22 -54 -20
-54 4 0 8 9 22 20 32 25 23 25 33 -1 61 -22 24 -20 54 4 54 8 0 22 -9 32 -20z"/>
</g>
</svg>
